<svg width="64" height="64" viewBox="0 0 64 64" fill="none" xmlns="http://www.w3.org/2000/svg">
<path fill-rule="evenodd" clip-rule="evenodd" d="M24.9066 50.3999L56.1866 19.1199C58.3269 17.1256 59.2079 14.122 58.484 11.2875C57.7601 8.45304 55.5468 6.23972 52.7123 5.51584C49.8778 4.79196 46.8742 5.67298 44.8799 7.81328L13.5199 39.1733C13.3193 39.3795 13.1488 39.6129 13.0132 39.8666L5.59989 54.8266C5.1945 55.654 5.24491 56.632 5.73322 57.4133C6.22153 58.1946 7.07855 58.6685 7.99989 58.6666C8.43988 58.6563 8.87046 58.5372 9.25323 58.32L24.2132 50.9066C24.467 50.7711 24.7004 50.6005 24.9066 50.3999ZM55.9999 58.6666C57.4727 58.6666 58.6666 57.4727 58.6666 56C58.6666 54.5272 57.4727 53.3333 55.9999 53.3333H31.9999C30.5271 53.3333 29.3332 54.5272 29.3332 56C29.3332 57.4727 30.5271 58.6666 31.9999 58.6666H55.9999ZM43.5199 24.2399L39.7599 20.4799L17.6799 42.6666L13.9732 50.1333L21.3332 46.32L43.5199 24.2399ZM50.5732 10.6633C51.3042 10.6633 52.0031 10.9633 52.5066 11.4933C53.0262 12.0076 53.3119 12.7128 53.2968 13.4438C53.2817 14.1748 52.9671 14.8675 52.4266 15.3599L47.2799 20.4799L43.5199 16.7199L48.6399 11.4933C49.1433 10.9633 49.8423 10.6633 50.5732 10.6633Z" />
</svg>
