<svg width="64" height="64" viewBox="0 0 64 64" fill="none" xmlns="http://www.w3.org/2000/svg">
<path fill-rule="evenodd" clip-rule="evenodd" d="M13.3333 5.33337H50.6666C55.0849 5.33337 58.6666 8.9151 58.6666 13.3334V40C58.6666 44.4183 55.0849 48 50.6666 48H47.9999V56C47.9945 57.0766 47.3424 58.0443 46.3466 58.4534C46.0301 58.6027 45.6831 58.6757 45.3333 58.6667C44.6244 58.6708 43.9432 58.3925 43.4399 57.8934L33.5733 48H13.3333C8.91497 48 5.33325 44.4183 5.33325 40V13.3334C5.33325 8.9151 8.91497 5.33337 13.3333 5.33337ZM50.6666 42.6667C52.1393 42.6667 53.3333 41.4728 53.3333 40V13.3334C53.3333 11.8606 52.1393 10.6667 50.6666 10.6667H13.3333C11.8605 10.6667 10.6666 11.8606 10.6666 13.3334V40C10.6666 41.4728 11.8605 42.6667 13.3333 42.6667H34.6666C35.3754 42.6626 36.0567 42.9409 36.5599 43.44L42.6666 49.5734V45.3334C42.6666 43.8606 43.8605 42.6667 45.3333 42.6667H50.6666Z"/>
</svg>
