<svg width="64" height="64" viewBox="0 0 64 64" fill="none" xmlns="http://www.w3.org/2000/svg">
<path fill-rule="evenodd" clip-rule="evenodd" d="M55.84 45.3334H53.3334V26.6667C53.3334 14.8846 43.7821 5.33337 32 5.33337C20.218 5.33337 10.6667 14.8846 10.6667 26.6667V45.3334H8.29338C6.82062 45.3334 5.62671 46.5273 5.62671 48C5.62671 49.4728 6.82062 50.6667 8.29338 50.6667H24C24 55.085 27.5818 58.6667 32 58.6667C36.4183 58.6667 40 55.085 40 50.6667H55.84C57.3128 50.6667 58.5067 49.4728 58.5067 48C58.5067 46.5273 57.3128 45.3334 55.84 45.3334ZM32 53.3334C30.5273 53.3334 29.3334 52.1395 29.3334 50.6667H34.6667C34.6667 52.1395 33.4728 53.3334 32 53.3334ZM16 45.3334H37.3334H48V26.6667C48 17.8302 40.8366 10.6667 32 10.6667C23.1635 10.6667 16 17.8302 16 26.6667V45.3334Z"/>
</svg>
