<svg width="64" height="64" viewBox="0 0 64 64" fill="none" xmlns="http://www.w3.org/2000/svg">
<path fill-rule="evenodd" clip-rule="evenodd" d="M43.4934 39.7333L57.8934 54.1066C58.3982 54.6074 58.6822 55.2889 58.6822 56C58.6822 56.711 58.3982 57.3926 57.8934 57.8933C57.3927 58.3981 56.7111 58.6821 56 58.6821C55.289 58.6821 54.6074 58.3981 54.1067 57.8933L39.7334 43.4933C36.0066 46.4186 31.4045 48.0059 26.6667 48C14.8846 48 5.33337 38.4487 5.33337 26.6666C5.33337 14.8846 14.8846 5.33331 26.6667 5.33331C38.4488 5.33331 48 14.8846 48 26.6666C48.0059 31.4044 46.4187 36.0065 43.4934 39.7333ZM26.6667 10.6666C17.8302 10.6666 10.6667 17.8301 10.6667 26.6666C10.6667 35.5032 17.8302 42.6666 26.6667 42.6666C35.5033 42.6666 42.6667 35.5032 42.6667 26.6666C42.6667 17.8301 35.5033 10.6666 26.6667 10.6666Z"/>
</svg>
