<svg width="64" height="64" viewBox="0 0 64 64" fill="none" xmlns="http://www.w3.org/2000/svg">
<path fill-rule="evenodd" clip-rule="evenodd" d="M56.8266 24.2934L53.3332 23.1467L54.9866 19.8934C55.5123 18.8669 55.3186 17.6189 54.5066 16.8L47.1999 9.46669C46.3811 8.65466 45.133 8.46099 44.1066 8.98669L40.8532 10.6667L39.7066 7.20003C39.3349 6.05512 38.2422 5.30119 37.0399 5.36003H26.8266C25.6243 5.30119 24.5316 6.05512 24.1599 7.20003L23.1466 10.6667L19.8932 8.98669C18.8668 8.46099 17.6188 8.65466 16.7999 9.46669L9.46657 16.8C8.65453 17.6189 8.46087 18.8669 8.98657 19.8934L10.6666 23.1467L7.1999 24.2934C6.055 24.6651 5.30107 25.7577 5.3599 26.96V37.3067C5.30107 38.509 6.055 39.6016 7.1999 39.9734L10.6666 41.12L9.01324 44.3734C8.48754 45.3998 8.6812 46.6478 9.49324 47.4667L16.7999 54.5334C17.6188 55.3454 18.8668 55.5391 19.8932 55.0134L23.1466 53.3334L24.2932 56.8C24.665 57.9449 25.7576 58.6989 26.9599 58.64H37.3066C38.5089 58.6989 39.6015 57.9449 39.9732 56.8L41.1199 53.3334L44.3732 54.9867C45.3997 55.5124 46.6477 55.3187 47.4666 54.5067L54.7999 47.1734C55.6119 46.3545 55.8056 45.1065 55.2799 44.08L53.3332 40.8534L56.7999 39.7067C57.9448 39.335 58.6987 38.2423 58.6399 37.04V26.8267C58.6429 25.6803 57.9127 24.6602 56.8266 24.2934ZM18.6666 32C18.6666 24.6362 24.6361 18.6667 31.9999 18.6667C35.5361 18.6667 38.9275 20.0715 41.428 22.5719C43.9285 25.0724 45.3332 28.4638 45.3332 32C45.3332 39.3638 39.3637 45.3334 31.9999 45.3334C24.6361 45.3334 18.6666 39.3638 18.6666 32ZM23.9999 32C23.9999 36.4183 27.5816 40 31.9999 40C34.1216 40 36.1565 39.1572 37.6568 37.6569C39.1571 36.1566 39.9999 34.1218 39.9999 32C39.9999 27.5817 36.4182 24 31.9999 24C27.5816 24 23.9999 27.5817 23.9999 32ZM51.7066 35.7867L53.3332 35.2534V28.7467L51.7066 28.2134C50.2261 27.7354 49.0281 26.6348 48.4266 25.2C47.8358 23.7595 47.904 22.1327 48.6132 20.7467L49.3866 19.2L44.7999 14.6134L43.2532 15.3867C41.867 16.0856 40.245 16.1459 38.8108 15.5517C37.3765 14.9575 36.2724 13.7679 35.7866 12.2934L35.2532 10.6667H28.7466L28.2132 12.2934C27.7274 13.7679 26.6233 14.9575 25.189 15.5517C23.7548 16.1459 22.1328 16.0856 20.7466 15.3867L19.1999 14.6134L14.6132 19.2L15.3866 20.7467C16.0958 22.1327 16.164 23.7595 15.5732 25.2C14.9717 26.6348 13.7737 27.7354 12.2932 28.2134L10.6666 28.7467V35.2534L12.2932 35.7867C13.7737 36.2647 14.9717 37.3653 15.5732 38.8C16.164 40.2406 16.0958 41.8673 15.3866 43.2534L14.6132 44.8L19.1999 49.3867L20.7466 48.6134C22.1328 47.9144 23.7548 47.8542 25.189 48.4484C26.6233 49.0425 27.7274 50.2322 28.2132 51.7067L28.7466 53.3334H35.2532L35.7866 51.7067C36.2724 50.2322 37.3765 49.0425 38.8108 48.4484C40.245 47.8542 41.867 47.9144 43.2532 48.6134L44.7999 49.3867L49.3866 44.8L48.6132 43.2534C47.904 41.8673 47.8358 40.2406 48.4266 38.8C49.0281 37.3653 50.2261 36.2647 51.7066 35.7867Z"/>
</svg>
