<svg width="64" height="64" viewBox="0 0 64 64" fill="none" xmlns="http://www.w3.org/2000/svg">
<path fill-rule="evenodd" clip-rule="evenodd" d="M54.16 26.5334C56.16 27.7334 58.6667 29.3334 58.6667 32.0001C58.6667 34.6668 56.16 36.2668 54.16 37.2534C53.539 37.6043 52.9421 37.9963 52.3734 38.4268C52.573 39.149 52.8317 39.8536 53.1467 40.5334C53.1695 40.5886 53.1924 40.6441 53.2155 40.7C54.0842 42.8017 55.132 45.3367 53.5734 47.4668C51.9734 49.6534 49.12 49.4134 46.8 49.2001C46.0632 49.1482 45.3236 49.1482 44.5867 49.2001C44.4151 49.6414 44.1984 50.5111 44.0402 51.1458C44.0263 51.2014 44.0129 51.2552 44 51.3068C43.9912 51.3464 43.9823 51.3862 43.9734 51.4262C43.4722 53.6717 42.8601 56.4145 40.24 57.2268C39.8353 57.3601 39.4128 57.432 38.9867 57.4401C37.0146 57.1725 35.196 56.2302 33.84 54.7734C33.2626 54.2492 32.6476 53.7679 32 53.3334C31.3524 53.7679 30.7375 54.2492 30.16 54.7734C28.4267 56.4001 26.3467 58.2668 23.76 57.4401C21.1734 56.6134 20.5067 53.7868 20 51.5201C19.9872 51.4685 19.9738 51.4148 19.9599 51.3592C19.8017 50.7245 19.585 49.8548 19.4134 49.4134C18.6765 49.3615 17.9369 49.3615 17.2 49.4134C14.88 49.6268 12 49.8401 10.4267 47.6801C8.87263 45.5465 9.94637 42.9446 10.821 40.8253L10.8534 40.7468C11.1684 40.0669 11.4271 39.3623 11.6267 38.6401C11.058 38.2096 10.4611 37.8176 9.84004 37.4668C7.84004 36.2668 5.33337 34.6668 5.33337 32.0001C5.33337 29.3334 7.84004 27.7334 9.84004 26.6134C10.4611 26.2626 11.058 25.8706 11.6267 25.4401C11.4271 24.7179 11.1684 24.0133 10.8534 23.3334C10.8306 23.2782 10.8077 23.2227 10.7846 23.1669C9.91588 21.0651 8.8681 18.5302 10.4267 16.4001C12.0267 14.2134 14.88 14.4534 17.2 14.6668C17.9369 14.7186 18.6765 14.7186 19.4134 14.6668C19.585 14.2254 19.8017 13.3557 19.9599 12.721C19.9738 12.6654 19.9872 12.6116 20 12.5601C20.5067 10.2934 21.2534 7.52009 23.76 6.69342C26.2619 5.86834 28.4184 7.72628 30.1501 9.21817L30.16 9.22675C30.7375 9.75096 31.3524 10.2322 32 10.6668C32.6522 10.1895 33.2673 9.66358 33.84 9.09342C33.8802 9.05879 33.9206 9.02395 33.9612 8.98896C35.6701 7.51495 37.7134 5.75259 40.24 6.56009C42.8267 7.38675 43.4934 10.2134 44 12.4801C44.0129 12.5316 44.0263 12.5855 44.0402 12.6411C44.1984 13.2758 44.4151 14.1454 44.5867 14.5868C45.3236 14.6386 46.0632 14.6386 46.8 14.5868C49.12 14.3734 52 14.1601 53.5734 16.3201C55.1275 18.4537 54.0537 21.0556 53.1791 23.1749L53.1467 23.2534C52.8317 23.9333 52.573 24.6379 52.3734 25.3601C52.9421 25.7906 53.539 26.1826 54.16 26.5334ZM31.4134 40.3201L42.08 26.9868C42.8468 25.8333 42.6028 24.2849 41.5186 23.423C40.4343 22.5612 38.8708 22.6729 37.92 23.6801L29.12 34.6668L25.8934 31.4401C24.8477 30.3944 23.1524 30.3944 22.1067 31.4401C21.061 32.4857 21.061 34.1811 22.1067 35.2268L27.44 40.5601C27.9433 41.0593 28.6246 41.3375 29.3334 41.3334H29.4934C30.2481 41.2832 30.9461 40.9149 31.4134 40.3201Z"/>
</svg>
